<svg width="240" height="240" viewBox="0 0 240 240" fill="none" xmlns="http://www.w3.org/2000/svg">
<path fill-rule="evenodd" clip-rule="evenodd" d="M181.087 218.769C179.864 223.067 175.938 226.031 171.47 226.031H71.1342C66.9004 226.031 63.1804 223.222 62.021 219.15V219.15C60.2981 213.099 64.8426 207.08 71.1342 207.08H112.048C117.153 207.08 121.292 202.941 121.292 197.836V197.836C121.292 192.73 117.153 188.591 112.048 188.591H60.8705C56.4023 188.591 52.4763 185.627 51.2528 181.33L30.6268 108.886C28.8086 102.5 33.6046 96.1479 40.2446 96.1479L202.755 96.148C209.395 96.148 214.191 102.5 212.373 108.886L208.197 123.553C206.974 127.85 203.048 130.814 198.58 130.814H130.537C125.431 130.814 121.292 134.953 121.292 140.059V140.059C121.292 145.164 125.431 149.303 130.537 149.303H187.621C194.261 149.303 199.057 155.655 197.239 162.041L181.087 218.769Z" fill="#fff"/>
<path d="M174.738 36.8172C190.608 42.5254 199.89 49.3877 207.746 65.943C210.696 72.1603 205.811 79 198.929 79H38.5483C32.4565 79 27.6844 73.5301 29.7833 67.8113C34.0826 56.0973 41.778 48.7556 49.3103 46.2916C59.0104 43.1185 67.1449 20.7624 84.7158 16.0242C98.6391 12.2696 106.983 13.4782 116.572 21.8468C121.101 25.8003 127.948 25.7877 132.976 22.4922C146.775 13.4493 160.932 18.0241 168.303 31.0972C169.756 33.6734 171.955 35.8162 174.738 36.8172Z" fill="#fff" stroke="none"/>
</svg>
