<?xml version="1.0" encoding="utf-8"?>
<!-- Generator: Adobe Illustrator 28.3.0, SVG Export Plug-In . SVG Version: 6.00 Build 0)  -->
<svg version="1.1" id="svg22312" xmlns:svg="http://www.w3.org/2000/svg"
	 xmlns="http://www.w3.org/2000/svg" xmlns:xlink="http://www.w3.org/1999/xlink" x="0px" y="0px" viewBox="0 0 1033.3 565"
	 style="enable-background:new 0 0 1033.3 565;" xml:space="preserve">
<style type="text/css">
	.st0{fill:#FFFFFF;}
</style>
<g>
	<path id="path22280" class="st0" d="M944.8,303.2L944.8,303.2l-4.8,0c-1.2,0-2.3,0.4-3.3,1.4c-1.3,1.3-1.5,3.1-1.2,4.8
		c3.9,20.7,5.9,40.9,6.5,60h-60c-1.4,0-2.5,0.5-3.4,1.4c-0.9,0.9-1.5,2.1-1.5,4.1l0,17.2c0,3.4,2.4,5.3,5.2,5.3H942
		c-0.4,13.2-1.5,25.5-2.9,36.6c-1.1,8.5-2.4,16.4-3.7,23.6c-0.3,2.1,0.3,3.4,1.3,4.5c1.2,1.2,2.6,1.5,4.2,1.5l6,0l9.3,0
		c2.4,0,4.1-1.1,5.2-2.2c1.5-1.6,1.8-3.3,2-4.3c1.2-7.1,2.4-14.8,3.3-23c1.3-11.1,2.3-23.5,2.7-36.8h58.8c2.8,0,5.2-1.9,5.2-5.3
		l0-17.2c0-2-0.6-3.1-1.5-4.1c-0.9-0.9-2-1.4-3.4-1.4h-59.1c-0.4-11.4-1.2-23.2-2.5-35.3c-0.9-8.1-2.1-16.4-3.5-24.7
		c-0.3-1.7-0.9-3.4-2.6-4.7c-1.2-0.9-2.8-1.5-3.8-1.5l-8.1,0c0,0,0,0,0,0l-1.6,0L944.8,303.2z"/>
	<path id="path22282" class="st0" d="M549.9,0c-38.8,0-76.7,4.8-113.3,13.9C406,21.6,376.7,32.4,349,46
		c-10.3,5.1-19.9,10.3-29.1,15.8c-17.9,10.6-34.2,22-49.5,34.4c-11.8,9.6-22.5,19.3-31.8,28.4c-6.2,6.1-11.9,12.1-17.8,18.7
		c-0.5,0.6-1.1,1.2-1.6,1.8c-0.9,1.1-2.1,2.7-1.5,4.9c0.2,0.7,0.6,1.4,1.1,1.9c1,0.9,2.2,1.1,3.3,1c1.3-0.1,2.7-0.9,3.5-1.5
		c0.5-0.4,1.1-0.9,1.6-1.4c1.8-1.9,3.5-3.7,5.3-5.6c3.2-3.3,6.4-6.5,9.8-9.8c12.6-12.2,28.4-25.6,45.6-37.8
		c9.3-6.6,19.1-13,29.7-19.3c8.7-5.1,25.2-14.3,46-23.3c18.4-7.9,36.3-14.1,53.1-18.9c12.1-3.4,24.7-6.5,37.4-8.9
		c11.2-2.2,22.6-3.9,34.1-5.2c17.6-2,35.1-3,52.7-3c40.7,0,82.3,5.5,122.2,16.7c14.4,4,28.5,8.8,42.2,14.2
		c17.8,7,34.1,14.7,51.6,24.5c32.2,18,60.9,40,86.7,66.1c12.6,12.7,23.4,25.4,32.8,37.9c11.7,15.6,21.1,30.7,28.6,44.5
		c4.8,8.8,8.8,17.1,12,24.4c6.9,15.3,10.9,27.8,10.9,27.8c0.4,1.2,0.8,1.7,1.3,2.5c1.2,1.7,3.2,2.6,5.3,2.6l16.6,0
		c1.3,0,1.8-0.3,2.5-0.7c0.6-0.4,1.5-1.2,1.9-2.1c0.5-1.1,0.6-2.5,0.2-3.8c-6-17.9-14.2-36.7-23.9-54.8
		c-15.1-28.1-38-62.6-71.3-95.3c-29.5-28.9-59.2-49.3-84-63.5c-30.8-17.7-63.5-31.5-98.2-41.4C636.5,6,593.1,0,549.9,0z"/>
	<path id="path22284" class="st0" d="M473.5,382.4c0.6,0.1,0.7,0.1,1.3,0.2c6.4,0.9,11.4,1.8,15.9,2.9c5.2,1.3,9.6,3,12.8,4.7
		c2.4,1.4,4.4,2.8,6,4.4c0.9,0.9,1.7,1.9,2.5,3c1.1,1.6,2.7,4.5,3.5,6.3c0.7,1.5,1.1,2.7,1.2,3.1c0.8,2.3,1.3,4.8,1.7,7.3
		c0.5,4.2,0.5,8.1-0.1,11.9c-0.6,3.8-1.9,9.5-6.4,15.5c-3.8,5.1-9.1,9.1-15.3,12.1c-7.5,3.6-15.4,5.4-23.3,6.3
		c-14.8,1.6-30.9-1.3-44.2-7.9c-4.2-2.1-7.9-4.3-11.2-6.8c-3.2-2.4-6.3-5.1-8.6-8.2c-3.6-4.9-5-9.3-4.9-13.6c0-4.1,1.3-7.9,3.3-10.7
		c2.3-3.4,6-5.9,10.1-7.6c7.1-2.9,15.7-3.7,22.8-3.5c8.5,0.3,23.8,3,31.9,5.8c2.2,0.8,10.5,4,11.9,5.5c1,1,1.7,2.5,1.2,3.9
		c-1.9,5.7-15.6,8.6-19.5,9.2c-10.6,1.6-16.2-2.4-28.3-7.1c-3-1.2-7-2.5-10-2.8c-3-0.3-6.5,0.1-9.1,1.5c-2.7,1.4-4.1,3.8-4,6.4
		c0,2.4,1.9,4.6,5.9,6.3c1.8,0.8,3.4,1.4,5.1,1.9c4.3,1.4,8.4,1.9,13,2c9.1,0.2,18.6-0.5,27.9-2.4c10-2.1,19.5-5.6,27.5-11.3
		c2.1-1.5,4.2-3.7,4.2-6.5c0.1-5.6-9.7-9-9.7-9c-8.7-3.6-23.2-5.5-33.7-6.6c-2.1-0.2-4-0.4-5.6-0.6c-1.9-0.2-4.1-0.4-6.2-0.5
		c-1.6-0.1-3.1-0.2-4.9-0.4c-1.7-0.1-3.9-0.3-5.5-0.4c-3.6-0.3-6.9-0.6-9.4-0.9c-1.3-0.1-4.6-0.5-8.1-1.1c-2.4-0.4-4.8-0.9-7.1-1.8
		c-2.2-0.9-4.3-2.3-6.1-4.1c-1.5-1.6-2.7-3.5-3.1-5.5c-1.8-7,0.5-15.7,4.4-21.4c10.3-14.8,34.4-20.4,52.3-22.6
		c17.4-2.2,45.5-2.2,62.6,6.9c2.6,1.4,4,2.7,3.4,5.5c-1.1,5.3-5.1,8.7-9.9,10.2c-5,1.6-15.5,2.2-20.1,2.5
		c-20.6,1.2-45.5,0.5-65.2,5.9c-1.5,0.4-4.2,1.2-5,2.1c-1.6,1.8,0,2.9,2.3,3.6c1.6,0.5,3.7,0.9,6.6,1.3L473.5,382.4z"/>
	<path id="path22286" class="st0" d="M625.5,438.2c-3.8,9-14,18.7-26.5,12.7c-12.4-6-32.2-46.5-32.2-46.5s-7.5-15.1-8.9-14.7
		c0,0-1.6-2.9-2.6,13.6c-1,16.4,0.2,48.5-6.4,53.5c-6.2,5-13.7,3-17.6-2.9c-3.5-5.8-5-19.7-3.1-43.9c2.3-24.3,7.9-50.2,15.2-58.3
		c7.2-8,13-2.2,15.2-0.1c0,0,9.6,8.8,25.6,34.4l2.8,4.8c0,0,14.5,24.3,16,24.2c0,0,1.2,1.1,2.2,0.3c1.5-0.4,0.9-8.2,0.9-8.2
		s-3-26.4-16.2-71.2c0,0-2-5.6-0.7-10.8c1.3-5.3,6.6-2.8,6.6-2.8s20.4,10.3,30.4,43.6C636,399.1,629.4,429.1,625.5,438.2"/>
	<path id="path22288" class="st0" d="M739.4,365.3c-14.5,3.3-52.5,5.2-52.5,5.2l-4.8,15c0,0,19-1.6,32.8-0.2c0,0,4.5-0.5,5,5.1
		c0.2,5.2-0.4,10.8-0.4,10.8s-0.3,3.4-5.1,4.3c-5.2,0.9-41,2.3-41,2.3l-5.8,19.6c0,0-2.2,4.5,2.7,3.2c4.5-1.2,41.9-8.2,46.8-7.2
		c5.3,1.3,11,8.3,9.4,14.6c-2,7.9-39.4,31.7-62.1,30.1c0,0-12,0.8-22.1-15.4c-9.4-15.4,3.6-44.6,3.6-44.6s-5.9-13.6-1.6-18.2
		c0,0,2.6-2.3,10.1-2.8l9.1-19c0,0-10.4,0.7-16.6-7c-5.8-7.3-6.3-10.6-1.8-12.6c4.7-2.3,48.2-10.3,78.1-9.3c0,0,10.4-1,19.4,17
		C742.5,356.2,746.8,363.5,739.4,365.3"/>
	<path id="path22290" class="st0" d="M837.7,375.5c0,0-0.1-1.1-0.7-2.2c-1.1-2.3-4.1-4.7-11.2,3.3c-9,10-25.3,28.7-38.4,54.1
		c13.8-1.6,27-9,31-12.8c3.8-3.4,10.7-10.3,15.2-19.6c2.5-5.2,4.2-11.1,4.3-17.6C838,379,837.9,377.3,837.7,375.5 M845,418.3
		c-9.3,16.2-35.6,50.2-70.5,42.2c-4.3,10.4-8.3,20.8-12,32c-6.2,18.9-11.3,39.9-14.8,66.5c0,0-1.2,8.2-8,5.4
		c-5.4-1.9-13.5-9.3-17.7-20.1c-1.1-2.8-1.9-5.8-2.4-9c-0.6-5.1-0.5-11.1,0.3-17.8c1.4-12,5-26.3,10.6-42.2
		c3.9-10.9,8.7-22.6,14.4-34.8c-5.4-8.8-9.1-21.4-6-39.4c0,0,1.5-11,9.2-26c5.7-11.2,14.7-24.6,29-37.4c0,0,4-3.5,6.3-2.4
		c2.6,1.1,1.4,11.9-0.6,17.2c-2.1,5.3-17,31.1-17,31.1s-9.3,17.4-6.7,31.2c8.2-12.5,21.1-31,35.2-45.5c12.1-12.5,25.1-22,36.4-22.1
		c6.6-0.1,13.1,3.1,17.5,11.3c3.6,6.6,5.3,15.5,5.3,24.8C853.4,395.5,850.4,408.6,845,418.3"/>
	<path id="path22292" class="st0" d="M360.7,318.8c0,0-2.7,4.8-3.3,5.7c-0.3,0.5-1.3,1.8-2.5,2.8c-0.9,0.8-1.9,1.3-3.2,1.5
		c-1.4,0.1-2.7-0.4-4.2-1.6c-3.5-3.2-5.6-8-5.7-12.7c-0.1-2.1,0.3-4.4-0.1-6.1c-0.3-1.5-1.3-3.1-2.4-4.7c-1-1.4-2-2.8-2.8-4.1
		c-0.7-1.2-1.2-2.4-1.6-3.5c-1.4-3.5-1.8-6.6-1.9-9.4c-0.6-11.6,5.5-22.4,13.5-30.8c8-8.6,18.4-15.6,29.8-20.4
		c10.8-4.5,26.7-7.6,38.5-3.5c3.9,1.3,9.2,4.6,11.9,8c0.6,0.7,1.1,1.5,1.6,1.9c0.5,0.3,1.9,0.5,3,0.7c3.8,0.7,9.2,3.5,11.5,5.4
		c4.4,3.9,6.9,7.5,8,12.9c1.1,5,0.2,10.7-1.8,15.8c-2.1,5.4-5.5,10.3-9.1,14c-12.1,12.4-24,21-39.4,27.1c-4.9,1.9-11.5,3.5-16.7,4.1
		c-2.7,0.3-5.3,0.4-7.7,0.3c-2.7-0.1-5.4-0.5-7.7-0.9C368.3,321.2,362.6,320,360.7,318.8L360.7,318.8z M386.3,300
		c6.2-0.6,11.5-1.7,16.5-3.3c2.7-0.8,5.4-1.9,8-3.2c5.7-2.8,11.5-6.8,15.3-10.1c2-1.8,3.7-3.6,5-5.4c2.7-3.6,4.3-7.6,3.8-11.9
		c-0.4-3.6-2.8-6.3-5.7-7.5c-6.6-2.9-14,0.5-19.3,3.6c-3.9,2.2-9.7,6.6-15.1,11.2c-6.4,5.5-12.6,11.7-16.4,16.7
		c-2.2,3-4.4,5.9-6.4,9c0.3,0.9,7.5,1.3,11.5,1 M350.9,290.4c2.1-3.3,4.5-6.6,6.9-9.6c2.6-3.4,7.1-8.5,8.9-10.4
		c3.9-4.2,8.1-8.2,11.7-11.3c2.2-1.8,4.6-3.9,4.6-3.9s-1.7,0-4,0.5c-1.1,0.2-3,0.7-4.5,1.3c-1.9,0.7-3.4,1.3-4.8,2
		c-4.3,2.2-8,5.1-9.7,6.6c-3.2,2.8-6.6,6.4-8.8,10.3c-1.3,2.3-2.1,4.7-2.3,7.1c-0.1,1.6,0.1,3.3,0.8,4.9
		C350.2,288.9,350.9,290.4,350.9,290.4"/>
	<path id="path22294" class="st0" d="M374.5,342.7c0.5,0.1,1.2,0.3,1.8,0.5c5.4,2,7.6,7.1,9,12.6c3.1,12.8,4.4,41,4.9,52.1
		c0.4,8.3,0.6,16.5,0.9,24.7c0.3,6.9,0.9,16.2-0.6,22.7c-0.5,2.3-2.1,5.1-4.4,6.5c-2.5,1.7-8.4,1.8-11.6,1.1
		c-7.9-1.6-10.5-6.7-11.6-14.6c-2.7-18.7-1.4-55.4,0.2-70.9c0.5-5.1,2.4-21.5,5.1-28.4C369.2,346.7,371.1,342,374.5,342.7"/>
	<path id="path22296" class="st0" d="M83.5,207.8c-6.3-0.1-17.7,0-30.8,1.6c-9,1.1-18.4,2.9-27,5.3c-4.8,1.3-8.7,2.9-12.2,5.1
		c-3.9,2.6-7.2,6-9.8,10.6c-2.4,4.3-4.7,8.9-3.5,13.7c1.1,4,6.5,5.3,11.4,6.1c4.4,0.7,14.4,1.2,17.1-2c0.7-0.8,1.1-3,0.1-4.4
		c-1-1.8-3.5-3-5.9-3.5c-2-0.4-5.5-0.7-7.6-1c-1.5-0.2-2.2-0.5-2.6-0.7c-0.1-0.1-0.2-0.1-0.3-0.2c-0.1-0.1-0.1-0.2-0.1-0.2
		s0-0.1,0.1-0.2c0.1-0.1,0.3-0.3,0.5-0.4c1.7-1.1,7.2-2.6,8.5-3c6.2-1.7,15.9-2.8,23.7-3.2c7.8-0.4,15.6-0.4,22-0.2
		c26,0.8,51.2,5,76.4,12.2c13.7,3.9,27.7,8.8,42.5,14.6c20.8,8.2,42.1,19.5,61.8,33.4c17.5,12.3,33,26.2,45.1,41.6
		c7.3,9.4,16.1,23.6,20.4,37.4c1.5,4.7,2.8,10.1,2.9,16.4c0.1,6.1-0.8,13.2-3.5,20.2c-5,13.1-15.5,25.3-32.8,34.3
		c-6.4,3.3-13.7,6.3-22.1,8.6c-9,2.6-18.2,4.2-27.5,5.2c-10.9,1.2-21.7,1.4-32.8,1.1c-1.6,0-4.8-0.2-8.5-0.6
		c-9.5-0.9-18.1-2.3-23-3.3l-1.7-80c12.4,0.2,26,1.6,38.9,3.9c7.2,1.3,19.3,3.7,34.3,8.5c3,1,6.6,3.2,6.9,6.4
		c0.1,1.3-0.4,2.5-1.2,3.7c-2.2,3-5.9,5.3-9.1,6.8c-1.9,0.9-3.5,1.6-4.3,2.4c-0.8,1.1-0.9,2.7,0.3,3.6c1.5,1.2,4,2.1,6.4,2.6
		c12.4,2.8,20.7-2.7,25.5-8c5.2-5.7,6.7-10.2,7.2-14.8c0.8-8-2.8-14.2-4.6-16.8c-4.6-6.4-11.6-10.7-17.2-13.4
		c-12.8-6.1-27.4-9.3-34.9-10.6c-9.4-1.7-21.5-3-35.3-3.3c-6.5-0.1-13,0.2-13,0.2s-0.3-10.9-0.7-18.1c-0.8-11.9-4.1-35.1-14.8-41.8
		c-2-1.2-4.4-1.3-5.8,0.5c-2.1,2.7-4.2,13.1-4.6,15.8c-0.5,2.6-0.9,5.8-1.4,9.2c-0.7,5.4-1.3,11.4-1.7,16.2
		c-0.2,2.7-0.8,11.5-0.9,20.8c-0.1,0.1-0.3,0.3-0.5,0.5c0,0-4.8,0.7-11,2c-20.4,4.1-34.5,9.7-40,12.1c-9.9,4.3-24.1,12-28.4,22
		c-1,2.5-1.4,4-1.5,6.6c-0.3,5.6,1.8,10.5,3.6,13.7c4.7,8.8,14,18.3,21.9,25.4c5.7,5.1,13.9,11.5,20.6,16c5.4,3.7,9.5,6.3,13.3,8.5
		c4.4,2.6,8.7,4.9,13.1,7c2.4,1.1,5.3,2.6,8,3.9c0,0,0.4,3.8,0.9,8.1c0.5,4.6,1,9.4,2.9,13.7c0.7,1.6,1.5,3,2.6,4.2
		c3.1,3.5,6.6,4.2,8,4.5c3,0.5,5.8,0.2,8.8-0.3c1.2-0.2,2.5-0.7,3.5-1.2c1.6-0.8,2.9-2.1,3.8-4c1.3-2.6,1.8-6.8,1.8-7.4
		c0.2-2.4,0-5.1,0-5.1s9.6,2.3,16.2,3.5c10.9,1.9,21.5,3.1,33.9,3.3c15,0.2,31.1-1.7,48.3-5.9c10.4-2.5,20.3-5.8,29.9-10.3
		c9-4.2,17-9.1,23.9-14.8c5.2-4.3,10.7-9.7,15.9-17.2c1.5-2.1,2.8-4.2,3.8-5.9c0.3-0.5,1.1-1.7,2.2-3.6c3.1-5.2,6.9-13.2,8.8-23.4
		c0.5-3,0.9-6,1.1-9c0.7-13-1.9-26.1-7-38.1c-1.1-2.8-5.2-12.8-14-25.4c-7.6-11-16.5-21.2-25.8-30.5c-6.2-6.2-10.9-10.5-18.8-17.2
		c-11.3-9.4-22-16.4-25.3-18.6c-10.9-7.2-23.6-14.2-34.7-19.6c-17.9-8.7-35.4-15.3-52.8-20.7c-6-1.9-11.7-3.5-16.7-4.8
		c-10.4-2.8-26.3-6.6-43-8.7C101.5,208.6,91.7,207.9,83.5,207.8L83.5,207.8z M133.3,373.8c0,0-0.3,11.8-0.3,23.8
		c-0.1,12.3,0.1,24.8,0.2,33.6c0.1,7.3,0.2,12.1,0.2,12.1s-8.5-2.8-12.9-5c-8.1-3.5-15.8-7.5-23.1-12.1
		c-9.3-5.8-17.1-11.7-24.4-18.3c-1.5-1.3-4.1-3.9-5.4-5.2c-3.3-3.3-6.7-6.7-5.9-11.2c0.6-3.4,8-6.7,10.8-7.5
		c6.7-1.9,13.5-3.7,20.7-5.1c7.7-1.6,15.1-2.8,20.4-3.4C120.9,374.4,133.3,373.8,133.3,373.8L133.3,373.8z"/>
</g>
</svg>
