<?xml version="1.0" encoding="utf-8"?>
<!-- Generator: Adobe Illustrator 28.3.0, SVG Export Plug-In . SVG Version: 6.00 Build 0)  -->
<svg version="1.1" id="katman_1" xmlns="http://www.w3.org/2000/svg" xmlns:xlink="http://www.w3.org/1999/xlink" x="0px" y="0px"
	 viewBox="0 0 420.1 148" style="enable-background:new 0 0 420.1 148;" xml:space="preserve">
<style type="text/css">
	.st0{fill-rule:evenodd;clip-rule:evenodd;fill:#FFFFFF;}
</style>
<path class="st0" d="M82.3,24c5.5-6.8,8.1-15.4,7.3-24c-8.4,0.8-16.3,4.9-21.9,11.3c-5.6,6.3-8.4,14.4-7.9,22.8
	C68.4,34.5,76.8,30.7,82.3,24 M89.4,35.5c-12.2-0.8-22.6,6.9-28.1,6.9S46.6,35.8,36.9,36c-12.8,0.3-24.5,7.5-30.6,18.7
	c-13.2,22.6-3.5,56.4,9.4,74.5c6.2,9.4,13.6,18.8,23.5,18.8s12.9-6,24.2-6s14.5,6,24.4,5.8s16.6-9.4,22.7-18.2
	c4.4-6.4,7.8-13.5,10.1-20.9c-12-5.3-19.7-17.2-19.6-30.3c0.2-11.5,6.3-22.1,16-28.1c-6.3-8.9-16.3-14.4-27.1-14.7"/>
<path class="st0" d="M185.5,23.5v23.4h18.7V63h-18.7v55c0,8.5,3.7,12.5,12.1,12.5c2.3,0,4.5-0.2,6.8-0.5v16c-3.7,0.7-7.5,1-11.3,0.9
	c-20.2,0-28.1-7.6-28.1-26.9V63.2h-14.2V46.8h14.4V23.4L185.5,23.5z M272.9,146.7h-21.8l-36-99.7h21.8l25,79.6L287.2,47h21.4
	L272.9,146.7z M420.1,86.9h-39.7V47.1h-18.9v39.8H322v18.7h39.5v40h18.9v-40h39.7V86.9z"/>
</svg>
