<?xml version="1.0" encoding="utf-8"?>
<!-- Generator: Adobe Illustrator 28.3.0, SVG Export Plug-In . SVG Version: 6.00 Build 0)  -->
<svg version="1.1" id="Layer_1" xmlns="http://www.w3.org/2000/svg" xmlns:xlink="http://www.w3.org/1999/xlink" x="0px" y="0px"
	 viewBox="0 0 306.6 94.4" style="enable-background:new 0 0 306.6 94.4;" xml:space="preserve">
<style type="text/css">
	.st0{fill:#FFFFFF;}
</style>
<path class="st0" d="M151.9,94.4v-0.2c0.2-0.2,0.4-0.3,0.6-0.3c1.1,0,2.2,0,3.3,0c0.2,0,0.5,0.1,0.7,0.3v0.2L151.9,94.4z"/>
<path class="st0" d="M156.5,94.2c-1.5,0-3.1,0-4.6,0c-2.1-0.1-4.2-0.2-6.3-0.3c-5.6-0.4-11.1-1.3-16.6-2.5
	C110.5,87,93.4,78.1,79.3,65.4c-1.3-1.2-2.6-2.4-3.9-3.6c-0.3-0.3-0.6-0.6-0.7-1c-0.2-0.5-0.1-1.1,0.3-1.5c0.4-0.4,1-0.6,1.5-0.3
	c0.3,0.1,0.7,0.3,1,0.5c13.7,8.5,28.8,14.7,44.5,18.4c5.3,1.2,10.6,2.2,16,2.9c7.7,0.9,15.5,1.3,23.2,1c4.2-0.1,8.3-0.5,12.5-1
	c9.6-1.2,19.1-3.4,28.4-6.5c4.9-1.6,9.6-3.5,14.3-5.6c0.7-0.4,1.5-0.5,2.3-0.3c1.3,0.3,2,1.6,1.7,2.9c0,0,0,0,0,0
	c0,0.2-0.1,0.3-0.2,0.5c-0.3,0.6-0.7,1.1-1.3,1.5c-4.4,3.5-9.2,6.5-14.2,9c-9.5,4.8-19.6,8.2-30,10.2
	C168.7,93.3,162.6,94,156.5,94.2z"/>
<path class="st0" d="M99.8,16.5c1-0.6,2-1.2,3-1.7c2.7-1.4,5.7-2.1,8.7-1.9c4.2-0.1,7.7,3.2,7.8,7.4c0,0.1,0,0.1,0,0.2
	c0,0.4,0,0.8,0,1.3v19.9c0,1.7-0.2,2-2,2h-4.6c-0.3,0-0.6,0-0.9,0c-0.5-0.1-0.8-0.4-0.9-0.9c-0.1-0.4-0.1-0.8-0.1-1.3V23.7
	c0-0.7,0-1.4-0.2-2.1c-0.3-1.2-1.4-2-2.6-2.1c-2.3-0.1-4.5,0.3-6.6,1.3c-0.3,0.1-0.5,0.4-0.5,0.7v20.1c0,0.4,0,0.7-0.1,1.1
	c0,0.5-0.4,0.9-0.9,0.9c0,0-0.1,0-0.1,0l0,0c-0.6,0-1.1,0-1.8,0H94c-1.4,0-1.7-0.3-1.7-1.8V23.8c0-0.7-0.1-1.3-0.2-2
	c-0.3-1.3-1.4-2.2-2.7-2.3c-2.3-0.1-4.6,0.3-6.7,1.3c-0.3,0.1-0.5,0.4-0.4,0.7V42c0,1.4-0.3,1.7-1.7,1.7h-5.1
	c-1.3,0-1.7-0.4-1.7-1.7V15.4c0-0.3,0-0.6,0.1-0.9c0.2-0.4,0.6-0.7,1.1-0.7h4.8c0.6,0,1.2,0.4,1.3,1.1c0.2,0.5,0.3,1,0.5,1.6
	c0.4,0,0.6-0.3,0.9-0.4c2.1-1.4,4.4-2.3,6.9-2.9c1.9-0.4,3.9-0.4,5.8,0c1.8,0.4,3.4,1.5,4.4,3C99.6,16.3,99.7,16.4,99.8,16.5
	C99.8,16.4,99.7,16.5,99.8,16.5z"/>
<path class="st0" d="M179.2,35.6c0.2-0.8,0.5-1.5,0.7-2.3c1.8-5.9,3.5-11.8,5.3-17.8l0.2-0.7c0.2-0.7,0.8-1.1,1.5-1.1h5.8
	c1.5,0,1.8,0.4,1.3,1.8l-2.3,6.1c-2.6,6.7-5.1,13.4-7.7,20c-0.1,0.2-0.2,0.5-0.3,0.7c-0.3,0.8-1.1,1.3-1.9,1.3c-1.7,0-3.4,0-5.1,0
	c-1,0.1-2-0.6-2.3-1.6c-1-2.5-2-5.1-2.9-7.6c-2.3-6-4.6-12-6.9-18.1c-0.2-0.5-0.4-1-0.5-1.5c-0.1-0.8,0.2-1.1,0.9-1.1
	c2.2,0,4.4,0,6.5,0c0.9,0,1.3,0.6,1.6,1.4c0.4,1.5,0.8,3,1.3,4.4c1.6,5.3,3.1,10.7,4.7,16C179.1,35.6,179.1,35.6,179.2,35.6z"/>
<path class="st0" d="M43.1,18c0.3-0.1,0.5-0.2,0.6-0.5c0.7-0.7,1.4-1.4,2.2-2c2-1.5,4.5-2.3,7-2.1c1,0,1.3,0.3,1.4,1.3
	c0.1,1.3,0,2.6,0,4c0,0.5,0,1.1-0.1,1.6c-0.1,0.6-0.5,1-1.1,1c-0.5,0-1,0-1.6,0c-2.5-0.2-5.1,0.2-7.5,1.1c-0.5,0.2-0.5,0.6-0.5,1
	v18.4c0,0.3,0,0.7,0,1c0,0.5-0.4,0.9-0.9,0.9c-0.3,0-0.6,0-0.8,0h-5c-0.3,0-0.6,0-0.8,0c-0.5,0-0.9-0.5-0.9-1c0-0.3,0-0.6,0-0.9v-26
	c0-1.8,0.2-2,2-2h3.7c0.8-0.1,1.6,0.5,1.7,1.3c0,0,0,0,0,0C42.7,16,42.9,17,43.1,18z"/>
<path class="st0" d="M222.4,56.8c2.5,0,5,0.3,7.5,0.9c0.7,0.2,1.4,0.4,2,0.7c0.9,0.4,1.5,1.2,1.6,2.1c0.2,1.1,0.2,2.2,0.1,3.3
	c-0.5,6.5-2.5,12.9-5.9,18.5c-1.2,2-2.7,3.9-4.4,5.5c-0.3,0.3-0.8,0.6-1.2,0.8c-0.5,0.2-1,0-1.2-0.5c-0.1-0.1-0.1-0.3-0.1-0.4
	c0-0.4,0.1-0.8,0.3-1.2c1.3-3.6,2.6-7.2,3.7-10.9c0.6-2,1-4.1,1.3-6.2c0.1-0.8,0.1-1.5,0-2.3c0-1.3-0.9-2.4-2.2-2.8
	c-1.2-0.4-2.4-0.6-3.7-0.7c-3.5-0.2-7,0-10.5,0.5l-4.6,0.6c-0.5,0.1-1-0.1-1.2-0.5c-0.2-0.4-0.2-1,0.1-1.4c0.3-0.4,0.7-0.8,1.2-1.1
	c2.8-2,6-3.3,9.4-4.1C217,57.2,219.7,56.9,222.4,56.8z"/>
<path class="st0" d="M206.3,28.7v13.8c0,0.6-0.4,1.1-1,1.2c0,0-0.1,0-0.1,0c-2.1,0-4.1,0-6.2,0c-0.6,0.1-1.1-0.4-1.2-0.9
	c0-0.1,0-0.1,0-0.2c0-0.2,0-0.5,0-0.7V15.3c0-1.2,0.3-1.5,1.5-1.5h5.5c1.2,0,1.5,0.3,1.5,1.5L206.3,28.7L206.3,28.7z"/>
<path class="st0" d="M58.1,28.6V15c0-0.9,0.4-1.3,1.3-1.3c2,0,4,0,6,0c0.9,0,1.1,0.3,1.2,1.1c0,0.3,0,0.7,0,1v25.5
	c0,0.4,0,0.8-0.1,1.3c-0.1,0.5-0.4,0.8-0.9,0.9c-0.2,0-0.4,0-0.6,0h-5.3c-0.2,0-0.4,0-0.5,0c-0.5-0.1-0.9-0.5-1-1c0-0.3,0-0.6,0-0.9
	C58.1,37.4,58.1,33,58.1,28.6z"/>
<path class="st0" d="M62.5,0c0.6,0,1.2,0.1,1.8,0.3c2.1,0.6,3.3,2.7,3,4.8c-0.2,2-1.7,3.6-3.6,3.9c-0.8,0.2-1.7,0.2-2.6,0
	c-2.3-0.3-3.9-2.5-3.6-4.8C57.7,1.5,59.5,0,62.5,0z"/>
<path class="st0" d="M202.1,0c0.8-0.1,1.6,0.1,2.3,0.4c1.5,0.6,2.5,2,2.6,3.6c0.3,3.5-2,5.2-5.1,5.2c-0.4,0-0.8-0.1-1.3-0.1
	c-2.4-0.6-3.6-2.4-3.4-5.1c0.2-2.1,2-3.8,4.1-3.9C201.6,0,201.8,0,202.1,0z"/>
<path class="st0" d="M29.4,25.5c-0.2-2-0.7-3.9-1.5-5.8c-1.4-3.3-4.2-5.7-7.7-6.5c-4-0.9-8.2,0-11.5,2.6C8.5,16,8.3,16.2,8,16.3
	c-0.1,0-0.1-0.1-0.1-0.1c-0.1-0.4-0.2-0.8-0.3-1.1c-0.1-0.8-0.9-1.4-1.7-1.3c0,0,0,0,0,0c-1.1,0-2.3,0-3.5,0
	c-0.8-0.1-1.7,0.2-2.3,0.8C0,28,0,41.4,0,54.8c0.5,0.7,1.3,1.1,2.1,0.9c1.4,0,2.8,0,4.1,0c2.4,0,2.4,0,2.4-2.4V42.4
	c0-0.3-0.1-0.6,0.1-0.8c1.9,1.5,4.2,2.4,6.7,2.6c3.3,0.4,6.6-0.6,9-2.8c1.9-1.7,3.3-3.9,4-6.4C29.5,32,29.8,28.7,29.4,25.5z
	 M20.2,33.4c-0.3,1.2-0.9,2.3-1.8,3.1c-1,0.9-2.2,1.3-3.5,1.3c-1.9,0.1-3.9-0.3-5.6-1.2c-0.4-0.2-0.7-0.6-0.6-1.1v-6.9
	c0-2.3,0-4.6,0-6.9c0-0.5,0.3-1,0.8-1.2c2-1.1,4.3-1.4,6.6-1c1.6,0.2,3,1.3,3.6,2.8c0.6,1.2,0.9,2.6,1,3.9
	C21,28.6,20.9,31.1,20.2,33.4L20.2,33.4z"/>
<path class="st0" d="M306.6,31.5"/>
<path class="st0" d="M306.6,26.4v0.1c-0.2-0.1-0.2-0.4-0.2-0.6v-0.3l0,0l0,0v-0.4h0.1c0,0,0,0,0-0.1c-0.1-0.7-0.2-1.4-0.4-2.1
	c-1.4-5.1-4.6-8.4-9.8-9.7c-2.4-0.6-4.9-0.7-7.3-0.3c-5.2,0.8-8.9,3.5-10.7,8.4c-1.8,4.7-1.8,9.8,0,14.5c1.4,4.1,4.8,7.1,9,8
	c2.4,0.6,4.8,0.7,7.2,0.4c8-1,11.4-7,11.9-12.3l0,0v-0.5c0-0.2-0.1-0.4,0.2-0.6v0.1c0-0.1,0-0.1,0.1-0.1L306.6,26.4
	C306.7,26.4,306.6,26.4,306.6,26.4z M297.4,33.6c-0.2,0.8-0.6,1.5-1.1,2.2c-0.9,1.2-2.2,1.9-3.6,2.1c-0.7,0.1-1.5,0.1-2.2-0.1
	c-1.6-0.3-2.9-1.4-3.6-2.9c-0.6-1.2-0.9-2.5-1-3.8c-0.3-2.2-0.2-4.5,0.3-6.7c0.2-0.9,0.5-1.7,1-2.5c0.8-1.4,2.3-2.3,3.9-2.4
	c0.7-0.1,1.5-0.1,2.2,0.1c1.5,0.3,2.8,1.3,3.5,2.7c0.7,1.4,1,2.8,1.1,4.3c0,0.7,0,1.4,0,2.1C298.1,30.4,297.9,32,297.4,33.6
	L297.4,33.6z"/>
<path class="st0" d="M239.4,0.3h-5.3c-1.5,0-1.7,0.3-1.7,1.7v12.4c0,0.3,0.1,0.5-0.1,0.8c-0.3,0-0.5-0.3-0.8-0.4
	c-3.7-2.4-8.4-2.7-12.4-0.8c-2.8,1.4-5,3.9-6,6.8c-1.1,2.8-1.5,5.8-1.3,8.9c0,2.8,0.7,5.6,1.9,8.2c1.3,2.8,3.7,4.9,6.6,5.9
	c4,1.3,8.4,0.6,11.7-2c0.3-0.1,0.4-0.4,0.8-0.5c0.2,0.4,0.3,0.9,0.4,1.3c0.2,0.6,0.7,1,1.3,1h0.9c1.4,0,2.7,0,4.1,0
	c1.1,0,1.4-0.3,1.4-1.5V1.8C240.9,0.6,240.6,0.3,239.4,0.3z M232.4,28.5v7c0.1,0.5-0.2,0.9-0.6,1.1c-1.8,1-3.9,1.4-6,1.1
	c-1.8-0.2-3.3-1.3-4.1-2.8c-0.6-1.2-1-2.5-1.1-3.9c-0.3-2.4-0.1-4.8,0.5-7.2c0.2-0.7,0.4-1.3,0.8-1.9c0.8-1.5,2.3-2.4,4-2.6
	c2-0.2,4.1,0.2,5.9,1c0.5,0.2,0.7,0.6,0.7,1.1C232.4,23.8,232.5,26.1,232.4,28.5L232.4,28.5z"/>
<path class="st0" d="M133.3,31.2c2.9,0.5,5.8,0.6,8.7,0.1c1.7-0.2,3.3-0.7,4.8-1.5c1.7-0.9,3-2.4,3.5-4.3c1.3-4.8-0.7-9.7-5.8-11.5
	c-2.5-0.8-5.1-1.1-7.6-0.7c-6,0.7-10,4-11.8,9.8c-1.2,3.9-1.2,8.1-0.1,12c1.3,5.1,4.7,8.1,9.8,9.2c4.5,0.8,9.1,0.4,13.3-1.1
	c0.8-0.2,1.4-1,1.3-1.9c0-0.9,0-1.9,0-2.8c0-1.1-0.5-1.5-1.6-1.2s-2.2,0.5-3.3,0.7c-2.4,0.5-4.8,0.5-7.2,0.1
	c-3.2-0.6-5.5-3.6-5.2-6.9C132.6,31.1,133,31.1,133.3,31.2z M132.3,25.3c0.1-0.9,0.4-1.8,0.7-2.6c0.9-2.4,3.4-3.9,6-3.6
	c0.7,0,1.4,0.2,2,0.5c1,0.4,1.7,1.3,1.8,2.4c0.1,0.7,0.1,1.4-0.1,2c-0.5,1.2-1.6,2.1-2.9,2.2c-0.8,0.2-1.7,0.3-2.5,0.2
	c-1.5,0-3-0.1-4.5-0.3C132.3,25.9,132.3,25.9,132.3,25.3L132.3,25.3z"/>
<path class="st0" d="M262.6,31.5c2.2-0.1,4.4-0.6,6.4-1.6c2-1,3.5-2.9,3.9-5.1c0.3-1.4,0.3-2.8,0-4.2c-0.7-3.2-3.1-5.8-6.3-6.7
	c-1.8-0.6-3.8-0.8-5.7-0.7c-6.4,0.1-11.3,3.4-13.3,9.9c-1.3,4.2-1.2,8.7,0.2,12.8c1.2,4.1,4.6,7.3,8.8,8.2c1.9,0.5,3.8,0.6,5.8,0.6
	c2.8,0,5.6-0.6,8.2-1.6c0.9-0.2,1.5-1,1.4-2c0,0,0,0,0,0v-2.8c0-1.1-0.5-1.5-1.6-1.2c-0.8,0.2-1.7,0.4-2.5,0.6
	c-2.6,0.6-5.2,0.7-7.8,0.3c-2.5-0.3-4.5-2.2-5.1-4.6c-0.2-0.8-0.3-1.6-0.4-2.3c0.2,0,0.4,0,0.5,0.1C257.5,31.5,260,31.7,262.6,31.5z
	 M254.6,25.4c0.2-1.5,0.7-2.9,1.5-4.2c1.3-1.7,3.5-2.6,5.6-2.2c0.2,0,0.3,0.1,0.5,0.1c2.7,0.4,3.3,2.6,2.8,4.6
	c-0.4,1.5-1.7,2.1-3.1,2.4c-0.8,0.2-1.6,0.2-2.4,0.2c-1.6,0-3.1-0.2-4.6-0.4C254.7,25.9,254.5,25.8,254.6,25.4L254.6,25.4z"/>
</svg>
