<svg width="1240" height="895" viewBox="0 0 1240 895" fill="none" xmlns="http://www.w3.org/2000/svg">
<g clip-path="url(#clip0_1_13)">
<path d="M985.648 0.0953C885.162 0.0953 798.297 58.6764 756.978 143.712C756.876 142.592 756.764 141.465 756.633 140.325C749.908 81.5007 701.639 8.3742 616.169 8.3742H391.469V508.894H611.232C690.573 508.894 751.973 438.558 756.463 378.389C756.736 374.722 756.881 371.148 756.897 367.667C798.183 452.792 885.097 511.448 985.648 511.448C1126.12 511.448 1240 396.978 1240 255.772C1240 114.565 1126.12 0.0953 985.648 0.0953ZM583.862 393.714H519.777V307.861H583.862C613.019 307.861 625.704 331.952 625.704 350.787C625.704 373.411 608.869 393.714 583.862 393.714ZM583.862 205.162H519.777V119.309H583.862C608.869 119.309 625.704 139.612 625.704 162.235C625.704 181.07 613.019 205.162 583.862 205.162ZM682.685 255.436C695.083 251.604 716.59 241.96 733.381 222.916C730.356 246.658 730.625 270.705 734.181 294.373C717.508 271.759 695.606 259.533 682.685 255.436ZM985.913 382.412C960.745 382.412 936.142 374.949 915.215 360.966C894.289 346.983 877.978 327.109 868.347 303.857C858.715 280.604 856.195 255.018 861.105 230.333C866.015 205.648 878.135 182.974 895.932 165.177C913.728 147.381 936.403 135.261 961.087 130.351C985.772 125.441 1011.36 127.961 1034.61 137.592C1057.86 147.224 1077.74 163.534 1091.72 184.461C1105.7 205.388 1113.17 229.991 1113.17 255.159C1113.17 288.909 1099.76 321.276 1075.89 345.14C1052.03 369.005 1019.66 382.412 985.913 382.412Z" fill="white"/>
<path d="M1056.69 325.934C1095.78 286.846 1095.78 223.472 1056.69 184.384C1017.6 145.296 954.226 145.296 915.138 184.384C876.05 223.472 876.05 286.846 915.138 325.934C954.226 365.022 1017.6 365.022 1056.69 325.934Z" fill="white"/>
<path d="M225.562 8.374V195.489H139.102V8.374H0V508.895H139.102V315.288H225.562V508.895H364.664V8.374H225.562Z" fill="white"/>
<path d="M843.455 576.998C843.455 576.998 892.508 654.728 971.289 729.311C945.582 753.853 886.046 814.095 836.453 889.808H926.978C962.898 833.712 997.448 796.663 1017.2 777.623C1036.96 796.663 1071.51 833.712 1107.43 889.808H1197.96C1148.36 814.095 1088.83 753.853 1063.12 729.311C1141.9 654.729 1190.95 576.998 1190.95 576.998H1100.43C1100.43 576.998 1078.76 616.898 1017.21 683.203C955.649 616.898 933.98 576.998 933.98 576.998H843.455Z" fill="white"/>
<path d="M266.786 889.808V680.551C389.344 574.203 385.308 685.113 385.308 685.113V889.808H457.838V671.875C457.838 671.875 457.838 569.039 373.784 569.039C345.244 569.039 328.37 575.515 306.637 587.256C306.637 587.256 282.269 600.366 256.616 625.236C251.919 605.073 234.93 569.039 173.494 569.039C133.681 569.039 94.4239 598.911 74.2326 617.077V576.998H1.7026V889.808H74.2326V681.859C198.324 573.3 194.255 685.113 194.255 685.113V889.808H266.786Z" fill="white"/>
<path d="M743.332 576.998V614.866C719.897 585.939 685.091 568.017 638.814 568.017C553.339 568.017 484.048 641.081 484.048 731.211C484.048 821.34 553.339 894.405 638.814 894.405C685.091 894.405 719.897 876.015 743.332 847.086V889.808H815.926V576.998H743.332ZM648.518 824.71C629.773 824.71 611.449 819.151 595.864 808.737C580.278 798.323 568.13 783.521 560.957 766.203C553.783 748.885 551.907 729.829 555.563 711.444C559.22 693.059 568.247 676.172 581.502 662.917C594.756 649.663 611.644 640.636 630.029 636.979C648.413 633.322 667.47 635.199 684.788 642.372C702.106 649.546 716.908 661.693 727.322 677.279C737.736 692.865 743.294 711.189 743.294 729.934C743.294 755.07 733.309 779.177 715.535 796.951C697.761 814.725 673.655 824.71 648.518 824.71Z" fill="white"/>
</g>
<defs>
<clipPath id="clip0_1_13">
<rect width="1240" height="894.5" fill="white"/>
</clipPath>
</defs>
</svg>
