<?xml version="1.0" encoding="utf-8"?>
<!-- Generator: Adobe Illustrator 28.3.0, SVG Export Plug-In . SVG Version: 6.00 Build 0)  -->
<svg version="1.1" id="katman_1" xmlns="http://www.w3.org/2000/svg" xmlns:xlink="http://www.w3.org/1999/xlink" x="0px" y="0px"
	 viewBox="0 0 413.8 150.5" style="enable-background:new 0 0 413.8 150.5;" xml:space="preserve">
<style type="text/css">
	.st0{fill:#FFFFFF;}
	.st1{fill-rule:evenodd;clip-rule:evenodd;fill:#FFFFFF;}
</style>
<path class="st0" d="M190.1,103.7V64h0.7l28.6,39.7h9V45.4h-10V85h-0.7l-28.6-39.6h-9v58.3L190.1,103.7L190.1,103.7z M256.7,104.6
	c13.2,0,21.3-8.6,21.3-23c0-14.3-8.1-23-21.3-23c-13.1,0-21.3,8.7-21.3,23C235.5,96,243.5,104.6,256.7,104.6z M256.7,96.2
	c-7,0-11-5.3-11-14.6c0-9.2,4-14.6,11-14.6s11,5.4,11,14.6C267.7,90.9,263.7,96.2,256.7,96.2z M287.1,48.7v11.1h-7v8h7v24.1
	c0,8.6,4,12,14.2,12c1.9,0,3.8-0.2,5.3-0.5v-7.8c-1.2,0.1-2,0.2-3.4,0.2c-4.2,0-6.1-1.9-6.1-6.3V67.8h9.5v-8h-9.5V48.7H287.1
	L287.1,48.7z M312.6,103.7h10V59.5h-10V103.7z M317.6,52.2c3.3,0,6-2.7,6-6c0-3.4-2.7-6.1-6-6.1s-6,2.7-6,6.1
	C311.6,49.5,314.3,52.2,317.6,52.2L317.6,52.2z M350,104.6c13.2,0,21.3-8.6,21.3-23c0-14.3-8.1-23-21.3-23c-13.1,0-21.3,8.7-21.3,23
	C328.7,96,336.7,104.6,350,104.6z M350,96.2c-7,0-11-5.3-11-14.6c0-9.2,4-14.6,11-14.6c6.9,0,11,5.4,11,14.6
	C360.9,90.9,356.9,96.2,350,96.2z M377.2,103.7h10V78c0-6.5,3.8-10.6,9.7-10.6c6.1,0,8.9,3.4,8.9,10.1v26.2h10V75.1
	c0-10.6-5.4-16.5-15.2-16.5c-6.6,0-11,3-13.1,8h-0.7v-7.1h-9.7C377.2,59.5,377.2,103.7,377.2,103.7z"/>
<g>
	<path class="st1" d="M26.9,27.4c4.7,3.8,6.4,3.5,15.2,2.9l82.9-5c1.8,0,0.3-1.8-0.3-2l-13.8-9.9c-2.6-2-6.2-4.4-12.9-3.8l-80.2,5.9
		c-2.9,0.3-3.5,1.8-2.3,2.9L26.9,27.4z M31.9,46.7v87.2c0,4.7,2.3,6.4,7.6,6.1l91.1-5.3c5.3-0.3,5.9-3.5,5.9-7.3V40.8
		c0-3.8-1.5-5.9-4.7-5.6l-95.2,5.6C33.1,41.1,31.9,42.9,31.9,46.7L31.9,46.7z M121.8,51.4c0.6,2.6,0,5.3-2.6,5.6l-4.4,0.9v64.4
		c-3.8,2-7.3,3.2-10.3,3.2c-4.7,0-5.9-1.5-9.4-5.9L66.4,74.5v43.6l9.1,2c0,0,0,5.3-7.3,5.3L48,126.6c-0.6-1.2,0-4.1,2-4.7l5.3-1.5
		V62.8L48,62.2c-0.6-2.6,0.9-6.4,5-6.7L74.7,54l29.9,45.6V59.3L97,58.4c-0.6-3.2,1.8-5.6,4.7-5.9L121.8,51.4z M11.1,7.5l83.5-6.1
		c10.2-0.9,12.9-0.3,19.3,4.4l26.6,18.7c4.4,3.2,5.9,4.1,5.9,7.6v102.7c0,6.4-2.3,10.2-10.5,10.8L39,151.5
		c-6.2,0.3-9.1-0.6-12.3-4.7L7,121.3c-3.5-4.7-5-8.2-5-12.3V17.7C2,12.4,4.4,8.1,11.1,7.5z"/>
</g>
</svg>
