<?xml version="1.0" encoding="utf-8"?>
<!-- Generator: Adobe Illustrator 28.3.0, SVG Export Plug-In . SVG Version: 6.00 Build 0)  -->
<svg version="1.1" id="Layer_1" xmlns="http://www.w3.org/2000/svg" xmlns:xlink="http://www.w3.org/1999/xlink" x="0px" y="0px"
	 viewBox="0 0 549 148.4" style="enable-background:new 0 0 549 148.4;" xml:space="preserve">
<style type="text/css">
	.st0{fill:#FFFFFF;}
</style>
<path class="st0" d="M75.5,138.8c-8.2,1.4-16.6,1.8-25.3,3.1L23.6,64.2v81L0,148.4V0h22.1l30.2,84.1V0h23.3V138.8z M121.1,54.4
	l31-0.4v23.2l-31,0.3V112l41-2.5v22.4l-64.2,5V0h64.2v23.2h-41V54.4L121.1,54.4z M248.3,23.2h-24v106.6l-23.2,0.3V23.2h-24V0h71.2
	V23.2L248.3,23.2L248.3,23.2z M286,52.7h31.7v23.2H286v52.6h-22.8V0H328v23.2h-42V52.7L286,52.7z M365.7,108.3l39.4,2.1v22.9
	l-62.6-3.1V0h23.2V108.3L365.7,108.3z M424.6,134.7l22.8,1.7V0h-22.8V134.7z M549,0l-29.5,70.6l29.5,77.8l-26.1-4.2l-16.6-42.9
	l-16.9,39.4l-24.9-3.1l29.9-67.9L467.3,0h24.9l15.2,39l16.2-39H549z"/>
</svg>
